<svg width="512" height="512" xmlns="http://www.w3.org/2000/svg">
 <title>Radio</title>

 <g>
  <title>Layer 1</title>
  <ellipse
			fill="#6D97AB"
			stroke-width="20"
			cx="151"
			cy="189"
			id="svg_3"
			rx="25"
			ry="25"
			stroke-linecap="undefined"
			stroke-linejoin="undefined"
			stroke-opacity="0"
			stroke="#0a9674"
		/>
  <rect
			fill="#9ACEE6"
			stroke="#6D97AB"
			x="88"
			y="192.5"
			width="336"
			height="200"
			id="svg_1"
			stroke-width="15"
			rx="18"
		/>
  <line
			fill="none"
			x1="132"
			y1="194"
			x2="363"
			y2="86"
			id="svg_2"
			stroke-linejoin="undefined"
			stroke-linecap="undefined"
			stroke-width="15"
			stroke="#6d97ab"
		/>
  <ellipse
			fill="#6D97AB"
			stroke-width="20"
			cx="368"
			cy="84"
			id="svg_4"
			rx="12"
			ry="12"
			stroke-linecap="undefined"
			stroke-linejoin="undefined"
			stroke-opacity="0"
			stroke="#0a9674"
		/>
  <rect
			fill="#6D97AB"
			stroke-width="20"
			stroke-opacity="0"
			x="129"
			y="386"
			width="46"
			height="21"
			id="svg_5"
			rx="7"
			stroke="#0a9674"
		/>
  <rect
			fill="#6D97AB"
			stroke-width="20"
			stroke-opacity="0"
			x="342"
			y="386"
			width="46"
			height="21"
			id="svg_7"
			rx="7"
			stroke="#0a9674"
		/>
  <path
			stroke="null"
			id="svg_6"
			fill="#6d97ab"
			d="m333.00015,269.25c1.775,0 3.21403,1.43899 3.21403,3.21403l0,9.38214l7.36913,-7.36943c1.25519,-1.25514 3.29031,-1.25514 4.5455,0c1.25519,1.25514 1.25519,3.29018 0,4.54532l-11.91462,11.91475l0,18.81425l16.29299,-9.40691l4.36122,-16.27585c0.45939,-1.71458 2.22154,-2.7321 3.93612,-2.27266c1.71458,0.45939 2.73235,2.22179 2.27296,3.93637l-2.69764,10.06681l8.12507,-4.69107c1.53759,-0.88754 3.50286,-0.36083 4.39079,1.17642c0.8875,1.53725 0.36083,3.50291 -1.17676,4.39045l-8.12507,4.69107l10.06677,2.69739c1.71458,0.45943 2.73235,2.22179 2.27296,3.93654c-0.45982,1.71458 -2.22197,2.73193 -3.93654,2.27253l-16.27585,-4.36114l-16.29299,9.40674l16.29385,9.40725l16.27585,-4.36122c1.71458,-0.45939 3.47672,0.55838 3.93654,2.27296c0.45939,1.71458 -0.55838,3.47672 -2.27296,3.93612l-10.06677,2.69764l8.12507,4.69077c1.53759,0.88793 2.06426,2.8532 1.17676,4.39079c-0.88793,1.53716 -2.8532,2.06384 -4.39079,1.17634l-8.12507,-4.6912l2.69764,10.06677c0.45939,1.71458 -0.55838,3.47715 -2.27296,3.93654c-1.71458,0.45939 -3.47672,-0.55796 -3.93612,-2.27253l-4.36122,-16.27585l-16.29385,-9.40768l0,18.81408l11.91462,11.91505c1.25519,1.25519 1.25519,3.28988 0,4.54507c-1.25519,1.25519 -3.29031,1.25519 -4.5455,0l-7.36913,-7.36913l0,9.38197c0,1.775 -1.43903,3.21403 -3.21403,3.21403c-1.775,0 -3.21403,-1.43903 -3.21403,-3.21403l0,-9.38197l-7.36951,7.36913c-1.25514,1.25519 -3.29018,1.25519 -4.54532,0c-1.25514,-1.25519 -1.25514,-3.28988 0,-4.54507l11.91484,-11.91505l0,-18.81408l-16.29398,9.40768l-4.3611,16.27585c-0.45943,1.71458 -2.22179,2.73193 -3.93637,2.27253c-1.71458,-0.45939 -2.7321,-2.22197 -2.27266,-3.93654l2.69739,-10.06677l-8.12515,4.6912c-1.53725,0.8875 -3.50295,0.36083 -4.39045,-1.17634c-0.88754,-1.53759 -0.36083,-3.50286 1.17642,-4.39079l8.12515,-4.69077l-10.06681,-2.69764c-1.71458,-0.45939 -2.7321,-2.22154 -2.27266,-3.93612c0.45939,-1.71458 2.22179,-2.73235 3.93637,-2.27296l16.27585,4.36122l16.29398,-9.40725l-16.29316,-9.40674l-16.27585,4.36114c-1.71458,0.45939 -3.47694,-0.55796 -3.93637,-2.27253c-0.45939,-1.71475 0.55808,-3.47711 2.27266,-3.93654l10.06686,-2.69739l-8.1252,-4.69107c-1.53725,-0.88754 -2.06392,-2.8532 -1.17642,-4.39045c0.88754,-1.53725 2.8532,-2.06396 4.39045,-1.17642l8.1252,4.69107l-2.69743,-10.06681c-0.45939,-1.71458 0.55808,-3.47698 2.27266,-3.93637c1.71458,-0.45943 3.47698,0.55808 3.93637,2.27266l4.3611,16.27585l16.29316,9.40691l0,-18.81425l-11.91484,-11.91475c-1.25514,-1.25514 -1.25514,-3.29018 0,-4.54532c1.25514,-1.25514 3.29018,-1.25514 4.54532,0l7.36951,7.36943l0,-9.38214c0,-1.77504 1.43903,-3.21403 3.21403,-3.21403z"
			clip-rule="evenodd"
			fill-rule="evenodd"
		/>
  <rect
			stroke="null"
			rx="10"
			id="svg_16"
			height="33.5"
			width="137.5"
			y="212.5"
			x="264"
			stroke-width="11"
			fill="#c9eeff"
		/>
  <line
			stroke="#afd0e0"
			stroke-width="3"
			id="svg_17"
			y2="233.5"
			x2="396.5"
			y1="233.5"
			x1="269.50001"
			fill="none"
		/>
  <line
			stroke="#afd0e0"
			stroke-width="3"
			id="svg_18"
			y2="240"
			x2="276"
			y1="234.5"
			x1="276"
			fill="none"
		/>
  <line
			stroke="#afd0e0"
			stroke-width="3"
			id="svg_19"
			y2="240"
			x2="291.33333"
			y1="234.5"
			x1="291.33333"
			fill="none"
		/>
  <line
			stroke="#afd0e0"
			stroke-width="3"
			id="svg_20"
			y2="240"
			x2="307.83333"
			y1="234.5"
			x1="307.83333"
			fill="none"
		/>
  <line
			stroke="#afd0e0"
			stroke-width="3"
			id="svg_21"
			y2="240"
			x2="327"
			y1="234.5"
			x1="327"
			fill="none"
		/>
  <line
			stroke="#afd0e0"
			stroke-width="3"
			id="svg_22"
			y2="240"
			x2="345"
			y1="234.5"
			x1="345"
			fill="none"
		/>
  <line
			stroke="#afd0e0"
			stroke-width="3"
			id="svg_23"
			y2="240"
			x2="365"
			y1="234.5"
			x1="365"
			fill="none"
		/>
  <line
			stroke="#afd0e0"
			stroke-width="3"
			id="svg_24"
			y2="240"
			x2="384.16667"
			y1="234.5"
			x1="384.16667"
			fill="none"
		/>
  <line
			id="svg_26"
			y2="252.5"
			x2="228"
			y1="252.5"
			x1="128"
			stroke-width="6"
			stroke="#6D97AB"
			fill="none"
		/>
  <line
			id="svg_27"
			y2="272.50011"
			x2="228"
			y1="272.50011"
			x1="127.9993"
			stroke-width="6"
			stroke="#6D97AB"
			fill="none"
		/>
  <line
			id="svg_28"
			y2="293.00022"
			x2="228"
			y1="293.00022"
			x1="128.4993"
			stroke-width="6"
			stroke="#6D97AB"
			fill="none"
		/>
  <line
			id="svg_29"
			y2="312"
			x2="228"
			y1="312"
			x1="128"
			stroke-width="6"
			stroke="#6D97AB"
			fill="none"
		/>
 </g>
</svg>
